<svg xmlns="http://www.w3.org/2000/svg" viewBox="0 0 400 400"><path d="M279.1 120.4c-21-21-48.8-32.5-78.5-32.5-61.2 0-111 49.8-111 111 0 21 5.9 41.4 17 59.1l2.6 4.2L98 303l42-11 4.1 2.4c17 10.1 36.6 15.5 56.5 15.5 61.2 0 110.9-49.8 111-111-.1-29.7-11.6-57.5-32.5-78.5zm-13.2 126.1c-2.8 7.8-16.1 14.9-22.5 15.9-5.7.9-13 1.2-21-1.3-4.8-1.5-11.1-3.6-19-7-33.5-14.4-55.3-48.1-57-50.4-1.7-2.2-13.6-18.1-13.6-34.5s8.6-24.5 11.7-27.8c3.1-3.3 6.7-4.2 8.9-4.2s4.4 0 6.4.1 4.8-.8 7.5 5.7c2.8 6.7 9.5 23.1 10.3 24.8.8 1.7 1.4 3.6.3 5.8-1.1 2.2-1.7 3.6-3.3 5.6-1.7 1.9-3.5 4.3-5 5.8-1.7 1.7-3.4 3.5-1.5 6.8s8.6 14.3 18.6 23.1c12.7 11.4 23.5 14.9 26.8 16.6 3.3 1.7 5.3 1.4 7.2-.8 1.9-2.2 8.3-9.7 10.6-13.1 2.2-3.3 4.4-2.8 7.5-1.7 3.1 1.1 19.5 9.2 22.8 10.9 3.3 1.7 5.6 2.5 6.4 3.9.7 1.3.7 8-2.1 15.8zM0 0v400h400V0H0zm200.6 332.4c-22.4 0-44.4-5.6-63.9-16.3l-70.8 18.6 18.9-69.2C73.1 245.3 67 222.3 67 198.8c0-73.6 59.9-133.5 133.5-133.5 35.7 0 69.2 13.9 94.4 39.2 25.2 25.2 39.1 58.8 39.1 94.4 0 73.6-59.9 133.5-133.4 133.5z" fill-rule="evenodd" clip-rule="evenodd"/></svg>