<svg xmlns="http://www.w3.org/2000/svg" viewBox="0 0 22.63 22.63">
  <path fill="#f1f1f1" fill-rule="evenodd" d="M11.31 18.15c-3.77 0-6.84-3.07-6.84-6.84s3.07-6.84 6.84-6.84 6.84 3.07 6.84 6.84-3.06 6.84-6.84 6.84zm5.77-5.9c-.2-.06-1.81-.54-3.64-.25.76 2.1 1.08 3.81 1.14 4.17a5.855 5.855 0 0 0 2.5-3.92zM13.6 16.7c-.09-.51-.43-2.3-1.25-4.43-.01 0-.03.01-.04.01-3.3 1.15-4.48 3.43-4.59 3.65.99.77 2.24 1.23 3.59 1.23.81.01 1.58-.16 2.29-.46zm-6.63-1.47c.13-.23 1.74-2.88 4.75-3.86.08-.02.15-.05.23-.07-.15-.33-.31-.66-.47-.99-2.92.87-5.75.84-6.01.83v.18c0 1.5.57 2.87 1.5 3.91zm-1.38-5.11c.26 0 2.67.01 5.4-.71-.97-1.72-2.01-3.17-2.17-3.38a5.874 5.874 0 0 0-3.23 4.09zm4.35-4.48c.16.22 1.22 1.66 2.18 3.42 2.08-.78 2.96-1.96 3.06-2.11a5.791 5.791 0 0 0-3.87-1.47c-.47 0-.93.05-1.37.16zm5.9 1.99c-.12.17-1.1 1.42-3.26 2.3.14.28.27.56.39.85.04.1.08.2.13.3 1.94-.24 3.88.15 4.07.19a5.938 5.938 0 0 0-1.33-3.64z" clip-rule="evenodd"/>
</svg>
