<svg xmlns="http://www.w3.org/2000/svg" viewBox="0 0 22.63 22.63">
  <path fill="#f1f1f1" d="M9.19 17.58c-2.83 0-5.15-1.36-5.18-1.38-.22-.13-.32-.4-.23-.65.09-.24.33-.4.59-.36 1.53.21 2.6-.28 3.17-.66-1.42-1.07-4.59-4.11-2.65-8.6.08-.19.26-.31.46-.33.2-.01.4.08.5.25.06.09 1.42 2.15 4.84 2.58.01-1.86 1.52-3.37 3.39-3.37.83 0 1.61.3 2.23.85.9-.1 1.6-.12 1.63-.12.07 0 .14.01.21.03.12-.04.25-.05.38 0 .28.11.42.42.32.7-.1.28-.61 1.54-1.29 2.19.17 1.57-.22 3.88-2.74 6.48-1.78 1.83-3.81 2.39-5.63 2.39zm-2.57-1.46c1.95.58 4.95.84 7.42-1.7 2.38-2.45 2.62-4.54 2.4-5.86-.04-.22.07-.44.26-.56.25-.15.55-.62.79-1.11-.33.02-.8.06-1.31.12-.17.02-.34-.04-.46-.16-.44-.45-1.03-.7-1.65-.7-1.27 0-2.3 1.03-2.3 2.3 0 .17.02.32.05.47.04.17-.01.34-.12.47-.11.13-.28.2-.45.19-3.01-.18-4.8-1.49-5.68-2.36-1.2 4.24 2.94 6.7 3.12 6.81.14.08.24.22.27.38.03.16-.02.33-.13.45-.03.04-.79.87-2.21 1.26z"/>
</svg>
