<svg xmlns="http://www.w3.org/2000/svg" viewBox="0 0 22.63 22.63">
  <path fill="#f1f1f1" d="M17.83 4.61l-.01-.02a.42.42 0 0 0-.11-.15l-.03-.02-.02-.02-.05-.02a.47.47 0 0 0-.15-.06l-.08-.01a.63.63 0 0 0-.19.03h-.03l-14 6a.5.5 0 0 0-.3.45c0 .2.11.38.29.46l5.71 2.64v3.91a.5.5 0 0 0 .5.5c.15 0 .29-.07.39-.18l2.26-2.78 4.15 1.91c.07.03.14.05.21.05.09 0 .17-.02.25-.07a.52.52 0 0 0 .25-.39l1-12v-.03a.5.5 0 0 0-.04-.2zm-2.39 1.57l-6.2 6.79-4.64-2.14 10.84-4.65zM9.87 16.4v-2.04l1.21.56-1.21 1.48zm6.06-.34l-5.73-2.65 6.55-7.18-.82 9.83z"/>
</svg>
