<svg xmlns="http://www.w3.org/2000/svg">
	<symbol id="email" viewBox="0 0 100 100">
    <path fill="currentColor" d="M79.41,19.8c-0.01-0.03-0.03-0.06-0.04-0.1c-0.12-0.25-0.28-0.48-0.5-0.68c-0.04-0.03-0.09-0.04-0.13-0.08
      c-0.03-0.02-0.04-0.06-0.07-0.09c-0.06-0.04-0.14-0.04-0.21-0.08c-0.21-0.12-0.43-0.21-0.67-0.26c-0.11-0.02-0.22-0.04-0.34-0.05
      c-0.29-0.01-0.57,0.03-0.84,0.13c-0.04,0.02-0.09,0-0.14,0.02L13.85,45.47c-0.81,0.35-1.34,1.14-1.36,2.03
      c-0.01,0.88,0.5,1.69,1.3,2.06l25.55,11.79v17.5c0,0.95,0.6,1.79,1.49,2.11c0.25,0.08,0.5,0.13,0.75,0.13c0.66,0,1.3-0.29,1.73-0.82
      L53.4,67.84l18.56,8.56c0.3,0.13,0.62,0.21,0.94,0.21c0.39,0,0.78-0.1,1.13-0.31c0.63-0.37,1.04-1.02,1.1-1.75l4.47-53.69
      c0-0.04-0.02-0.08-0.02-0.12C79.58,20.42,79.54,20.1,79.41,19.8z M68.75,26.81L41.02,57.2l-20.79-9.6L68.75,26.81z M43.81,72.55
      v-9.13l5.4,2.49L43.81,72.55z M70.93,71L45.29,59.17L74.6,27.03L70.93,71z"/>
	</symbol>

  <symbol id="github" viewBox="0 0 100 100">
    <path fill="currentColor" d="M79.5,35.13c-0.57-3.54-1.94-6.72-4.42-9.37c-0.13-0.13-0.13-0.27-0.09-0.44c0.13-0.66,0.22-1.28,0.31-1.94
      c0.22-2.83-0.18-5.57-0.97-8.26c-0.04-0.18-0.13-0.35-0.22-0.57l-1.41,0.13c-1.59,0.13-3.14,0.44-4.64,1.02
      c-1.9,0.75-3.67,1.81-5.39,2.92c-0.31,0.18-0.53,0.22-0.88,0.18c-2.43-0.53-4.9-0.88-7.38-1.02C50.02,17.5,45.65,17.9,41.41,19
      c-0.31,0.04-0.53,0-0.75-0.18c-2.96-2.21-6.32-3.62-10.03-4.11l-1.5-0.13c-1.28,3.84-1.81,7.73-0.62,11.67
      c-0.09,0.09-0.13,0.18-0.22,0.27c-2.47,2.74-3.84,5.97-4.2,9.68c-0.18,1.77-0.22,3.49-0.09,5.26c0.18,1.99,0.53,3.93,1.19,5.79
      c0.8,2.21,1.99,4.15,3.71,5.74c1.9,1.72,4.07,2.92,6.45,3.84c2.74,1.02,5.57,1.55,8.44,1.9c0.57,0.09,1.15,0.13,1.72,0.18
      c-0.13,0.13-0.27,0.18-0.4,0.27c-0.66,0.31-1.37,0.57-2.03,0.88c-0.4,0.22-0.8,0.44-1.15,0.75c-0.93,0.8-1.68,1.77-2.03,2.92
      c-0.09,0.22-0.18,0.4-0.4,0.49c-0.62,0.31-1.19,0.66-1.81,0.93c-1.77,0.71-3.58,0.66-5.35-0.13c-0.84-0.35-1.63-0.88-2.39-1.46
      c-1.06-0.84-1.9-1.86-2.74-2.87c-0.62-0.75-1.24-1.46-1.94-2.08c-0.84-0.75-1.81-1.24-2.96-1.33c-0.64-0.1-1.29,0.09-1.77,0.53
      c-0.44,0.35-0.44,0.66,0,1.06l1.1,0.97c1.63,1.46,3.14,3.09,4.15,5.08c0.62,1.19,1.37,2.3,2.25,3.31c0.31,0.4,0.66,0.71,1.1,0.93
      c0.71,0.35,1.37,0.75,2.08,1.06c2.21,0.97,4.51,1.28,6.89,0.75c0.4-0.09,0.8-0.22,1.19-0.31v0.09c-0.13,1.24,0,2.47,0.09,3.71
      l0.13,3.54c0,0.49-0.13,0.93-0.31,1.33c-0.4,0.97-1.15,1.68-1.99,2.25c-0.31,0.22-0.62,0.4-0.88,0.66c-0.53,0.44-0.4,1.06,0.22,1.28
      c0.78,0.19,1.59,0.22,2.39,0.09c1.59-0.18,2.96-0.8,4.02-2.03c0.24-0.29,0.44-0.62,0.57-0.97c0.27-0.66,0.31-1.37,0.31-2.03v-9.24
      c0-0.31,0-0.62,0.04-0.97c0.09-1.24,0.75-2.08,1.9-2.52c0.09-0.04,0.18-0.04,0.31-0.09v12.68c0,0.66-0.04,1.37-0.13,2.03
      c-0.18,1.15-0.44,2.3-1.06,3.27c-0.31,0.49-0.57,0.93-0.84,1.41c0.27,0.22,0.53,0.4,0.88,0.35c0.35-0.04,0.75-0.09,1.1-0.18
      c2.03-0.4,3.45-1.55,4.2-3.54c0.49-1.37,0.75-2.74,0.75-4.2V65.58v-0.49h2.65v12.68c0,1.59,0.35,3.09,1.02,4.55
      c0.49,0.97,1.19,1.72,2.17,2.21c0.88,0.44,1.81,0.66,2.74,0.84c0.31,0.04,0.62,0.04,0.88-0.18c-0.12-0.73-0.45-1.42-0.93-1.99
      c-0.31-0.43-0.53-0.91-0.66-1.41c-0.27-1.06-0.31-2.12-0.31-3.18V66.06c0-0.13,0-0.27,0.04-0.4c0.49,0.09,0.84,0.35,1.24,0.57
      c0.75,0.49,1.1,1.19,1.15,2.03c0.04,0.31,0.04,0.62,0.04,0.97v9.1c0,0.35,0,0.66,0.04,1.02c0.09,0.93,0.4,1.77,1.15,2.43
      c1.06,0.97,2.3,1.55,3.71,1.77c0.71,0.09,1.46,0.18,2.17,0c0.35-0.09,0.66-0.27,0.71-0.66c0.04-0.35-0.09-0.57-0.53-0.8
      c-0.04,0-0.04-0.04-0.09-0.04c-1.02-0.62-1.9-1.41-2.52-2.43c-0.1-0.16-0.17-0.34-0.18-0.53c-0.09-1.59-0.13-3.23-0.18-4.82
      c-0.04-2.21-0.04-4.37-0.04-6.58c0-0.84-0.09-1.63-0.27-2.43c-0.4-2.08-1.41-3.71-3.18-4.86c-0.66-0.44-1.33-0.84-1.99-1.24
      c-0.13-0.09-0.22-0.13-0.44-0.27c0.18,0,0.22-0.04,0.27-0.04c1.46-0.18,2.87-0.31,4.33-0.53c2.92-0.49,5.61-1.5,8.09-3.09
      c3.4-2.21,5.74-5.17,6.81-9.1C79.85,42.55,80.11,38.89,79.5,35.13z M74.64,45.03c-0.71,2.74-2.3,4.82-4.95,6.54
      c-1.94,1.28-4.02,2.08-6.36,2.43c-0.93,0.13-1.81,0.27-2.74,0.35l-1.28,0.13c-0.53,0.04-3.45,0.22-6.76,0.22
      c-3.54,0-6.5-0.18-6.54-0.18l-0.53-0.04l-1.1-0.13c-2.12-0.27-4.86-0.71-7.42-1.63c-2.08-0.8-3.71-1.77-5.04-2.96
      c-1.1-1.02-1.94-2.34-2.56-4.02c-0.49-1.33-0.8-2.83-0.93-4.64c-0.13-1.46-0.09-2.92,0.04-4.46c0.27-2.78,1.28-5.17,3.14-7.2
      l0.27-0.31l1.59-1.86l-0.71-2.34c-0.53-1.63-0.62-3.36-0.31-5.35c1.99,0.57,3.84,1.5,5.57,2.78c1.27,0.97,2.92,1.29,4.46,0.88
      c3-0.75,6.19-1.15,9.37-1.15c0.75,0,1.55,0,2.3,0.04c2.25,0.13,4.51,0.44,6.67,0.93c1.46,0.32,2.98,0.05,4.24-0.75
      c1.37-0.88,2.96-1.86,4.6-2.52c0.35-0.13,0.71-0.27,1.06-0.35c0.18,1.24,0.22,2.43,0.13,3.62c0,0.4-0.09,0.8-0.13,1.19l-0.04,0.35
      c-0.35,2.12,0.62,3.54,1.24,4.2c1.77,1.86,2.83,4.2,3.27,7.07C75.65,38.89,75.48,41.89,74.64,45.03z"/>
  </symbol>

  <symbol id="twitter" viewBox="0 0 100 100">
    <path fill="currentColor" d="M40.61,77.68c-12.51,0-22.76-6.01-22.89-6.1c-0.97-0.57-1.41-1.77-1.02-2.87c0.4-1.06,1.46-1.77,2.61-1.59
      c6.76,0.93,11.49-1.24,14.01-2.92c-6.27-4.73-20.28-18.16-11.71-38c0.35-0.84,1.15-1.37,2.03-1.46c0.88-0.04,1.77,0.35,2.21,1.1
      c0.27,0.4,6.27,9.5,21.39,11.4c0.04-8.22,6.72-14.89,14.98-14.89c3.67,0,7.11,1.33,9.85,3.76c3.98-0.44,7.07-0.53,7.2-0.53
      c0.31,0,0.62,0.04,0.93,0.13c0.53-0.18,1.1-0.22,1.68,0c1.24,0.49,1.86,1.86,1.41,3.09c-0.44,1.24-2.7,6.81-5.7,9.68
      c0.75,6.94-0.97,17.15-12.11,28.63C57.62,75.21,48.65,77.68,40.61,77.68z M29.25,71.23c8.62,2.56,21.87,3.71,32.79-7.51
      c10.52-10.83,11.58-20.06,10.61-25.89c-0.18-0.97,0.31-1.94,1.15-2.47c1.1-0.66,2.43-2.74,3.49-4.9c-1.46,0.09-3.54,0.27-5.79,0.53
      c-0.75,0.09-1.5-0.18-2.03-0.71c-1.94-1.99-4.55-3.09-7.29-3.09c-5.61,0-10.16,4.55-10.16,10.16c0,0.75,0.09,1.41,0.22,2.08
      c0.18,0.75-0.04,1.5-0.53,2.08c-0.49,0.57-1.24,0.88-1.99,0.84c-13.3-0.8-21.21-6.58-25.1-10.43C19.31,50.64,37.6,61.51,38.4,62
      c0.62,0.35,1.06,0.97,1.19,1.68c0.13,0.71-0.09,1.46-0.57,1.99C38.89,65.84,35.53,69.51,29.25,71.23z"/>
  </symbol>

  <symbol id="dribbble" viewBox="0 0 100 100">
    <path fill="currentColor" d="M49.98,80.2c-16.66,0-30.23-13.57-30.23-30.23s13.57-30.23,30.23-30.23S80.2,33.32,80.2,49.98
      S66.68,80.2,49.98,80.2z M75.48,54.13c-0.88-0.27-8-2.39-16.08-1.1c3.36,9.28,4.77,16.84,5.04,18.43
      C70.34,67.45,74.34,61.18,75.48,54.13z M60.1,73.8c-0.4-2.25-1.9-10.16-5.52-19.58c-0.04,0-0.13,0.04-0.18,0.04
      c-14.58,5.08-19.8,15.16-20.28,16.13c4.37,3.4,9.9,5.44,15.86,5.44C53.56,75.87,56.96,75.12,60.1,73.8z M30.8,67.3
      c0.57-1.02,7.69-12.73,20.99-17.06c0.35-0.09,0.66-0.22,1.02-0.31c-0.66-1.46-1.37-2.92-2.08-4.37c-12.9,3.84-25.41,3.71-26.56,3.67
      v0.8C24.17,56.65,26.69,62.7,30.8,67.3z M24.7,44.72c1.15,0,11.8,0.04,23.86-3.14c-4.29-7.6-8.88-14.01-9.59-14.94
      C31.66,30.11,26.38,36.8,24.7,44.72z M43.92,24.92c0.71,0.97,5.39,7.34,9.63,15.11c9.19-3.45,13.08-8.66,13.52-9.32
      c-4.71-4.2-10.8-6.51-17.1-6.5C47.9,24.22,45.87,24.44,43.92,24.92z M70,33.72c-0.53,0.75-4.86,6.27-14.41,10.16
      c0.62,1.24,1.19,2.47,1.72,3.76c0.18,0.44,0.35,0.88,0.57,1.33c8.57-1.06,17.15,0.66,17.98,0.84C75.77,43.93,73.7,38.27,70,33.72z"
      />
  </symbol>
</svg>