<svg xmlns="http://www.w3.org/2000/svg" viewBox="0 0 22.63 22.63">
  <path fill="#f1f1f1" d="M17.99 7.95c-.13-.8-.44-1.52-1-2.12-.03-.03-.03-.06-.02-.1.03-.15.05-.29.07-.44.05-.64-.04-1.26-.22-1.87-.01-.04-.03-.08-.05-.13l-.32.03c-.36.03-.71.1-1.05.23-.43.17-.83.41-1.22.66-.07.04-.12.05-.2.04-.55-.12-1.11-.2-1.67-.23-.99-.06-1.98.03-2.94.28-.07.01-.12 0-.17-.04-.67-.5-1.43-.82-2.27-.93l-.34-.03c-.29.87-.41 1.75-.14 2.64-.02.02-.03.04-.05.06-.56.62-.87 1.35-.95 2.19-.04.4-.05.79-.02 1.19.04.45.12.89.27 1.31.18.5.45.94.84 1.3.43.39.92.66 1.46.87.62.23 1.26.35 1.91.43.13.02.26.03.39.04-.03.03-.06.04-.09.06-.15.07-.31.13-.46.2-.09.05-.18.1-.26.17-.21.18-.38.4-.46.66-.02.05-.04.09-.09.11-.14.07-.27.15-.41.21-.4.16-.81.15-1.21-.03-.19-.08-.37-.2-.54-.33-.24-.19-.43-.42-.62-.65-.14-.17-.28-.33-.44-.47-.19-.17-.41-.28-.67-.3a.483.483 0 0 0-.4.12c-.1.08-.1.15 0 .24l.25.22c.37.33.71.7.94 1.15.14.27.31.52.51.75.07.09.15.16.25.21.16.08.31.17.47.24.5.22 1.02.29 1.56.17.09-.02.18-.05.27-.07v.02c-.03.28 0 .56.02.84l.03.8c0 .11-.03.21-.07.3-.09.22-.26.38-.45.51-.07.05-.14.09-.2.15-.12.1-.09.24.05.29a1.36 1.36 0 0 0 .54.02c.36-.04.67-.18.91-.46a.8.8 0 0 0 .13-.22c.06-.15.07-.31.07-.46v-2.09c0-.07 0-.14.01-.22.02-.28.17-.47.43-.57.02-.01.04-.01.07-.02V17.75c0 .15-.01.31-.03.46-.04.26-.1.52-.24.74-.07.11-.13.21-.19.32.06.05.12.09.2.08.08-.01.17-.02.25-.04.46-.09.78-.35.95-.8.11-.31.17-.62.17-.95v-2.72-.11h.6v2.87c0 .36.08.7.23 1.03.11.22.27.39.49.5.2.1.41.15.62.19.07.01.14.01.2-.04a.936.936 0 0 0-.21-.45.94.94 0 0 1-.15-.32c-.06-.24-.07-.48-.07-.72v-2.84c0-.03 0-.06.01-.09.11.02.19.08.28.13.17.11.25.27.26.46.01.07.01.14.01.22v2.06c0 .08 0 .15.01.23.02.21.09.4.26.55.24.22.52.35.84.4.16.02.33.04.49 0 .08-.02.15-.06.16-.15.01-.08-.02-.13-.12-.18-.01 0-.01-.01-.02-.01-.23-.14-.43-.32-.57-.55a.245.245 0 0 1-.04-.12c-.02-.36-.03-.73-.04-1.09-.01-.5-.01-.99-.01-1.49 0-.19-.02-.37-.06-.55-.09-.47-.32-.84-.72-1.1-.15-.1-.3-.19-.45-.28-.03-.02-.05-.03-.1-.06.04 0 .05-.01.06-.01.33-.04.65-.07.98-.12.66-.11 1.27-.34 1.83-.7.77-.5 1.3-1.17 1.54-2.06.21-.81.27-1.64.13-2.49zm-1.1 2.24c-.16.62-.52 1.09-1.12 1.48-.44.29-.91.47-1.44.55-.21.03-.41.06-.62.08l-.29.03c-.12.01-.78.05-1.53.05-.8 0-1.47-.04-1.48-.04l-.12-.01-.25-.03c-.48-.06-1.1-.16-1.68-.37-.47-.18-.84-.4-1.14-.67-.25-.23-.44-.53-.58-.91-.11-.3-.18-.64-.21-1.05-.03-.33-.02-.66.01-1.01.06-.63.29-1.17.71-1.63l.06-.07.36-.42-.16-.53c-.12-.37-.14-.76-.07-1.21.45.13.87.34 1.26.63a1.17 1.17 0 0 0 1.01.2c.68-.17 1.4-.26 2.12-.26.17 0 .35 0 .52.01.51.03 1.02.1 1.51.21a1.282 1.282 0 0 0 .96-.17c.31-.2.67-.42 1.04-.57.08-.03.16-.06.24-.08.04.28.05.55.03.82 0 .09-.02.18-.03.27l-.01.08c-.08.48.14.8.28.95.4.42.64.95.74 1.6.11.68.07 1.36-.12 2.07z"/>
</svg>
